# AST/ASF file generated using VICON BodyLanguage
# -----------------------------------------------
:version 1.10
:name VICON
:units
  mass 1.0
  length 0.45
  angle deg
:documentation
   .ast/.asf automatically generated from VICON data using
   VICON BodyBuilder and BodyLanguage model FoxedUp or BRILLIANT.MOD
:root
   order TX TY TZ RX RY RZ
   axis XYZ
   position 0 0 0  
   orientation 0 0 0 
:bonedata
  begin
     id 1 
     name lhipjoint
     direction 0.547975 -0.797114 0.253638 
     length 2.36201 
     axis 0 0 0  XYZ
  end
  begin
     id 2 
     name lfemur
     direction 0.34202 -0.939693 0  
     length 7.69075  
     axis 0 0 20  XYZ
    dof rx ry rz
    limits (-160.0 20.0)
           (-70.0 70.0)
           (-60.0 70.0)
  end
  begin
     id 3 
     name ltibia
     direction 0.34202 -0.939693 0   
     length 7.91399   
     axis 0 0 20   XYZ
    dof rx
    limits (-10.0 170.0)
  end
  begin
     id 4 
     name lfoot
     direction 0.0705293 -0.193778 0.978507   
     length 2.13618   
     axis -90 7.62852e-016 20   XYZ
    dof rx rz
    limits (-45.0 90.0)
           (-70.0 20.0)
  end
  begin
     id 5 
     name ltoes
     direction 1.53592e-011 -4.21925e-011 1   
     length 1.07518   
     axis -90 7.62852e-016 20   XYZ
    dof rx
    limits (-90.0 20.0)
  end
  begin
     id 6 
     name rhipjoint
     direction -0.57 -0.782963 0.249136   
     length 2.4047  
     axis 0 0 0  XYZ 
  end
  begin
     id 7 
     name rfemur
     direction -0.34202 -0.939693 0   
     length 7.51486   
     axis 0 0 -20   XYZ
    dof rx ry rz
    limits (-160.0 20.0)
           (-70.0 70.0)
           (-70.0 60.0)
  end
  begin
     id 8 
     name rtibia
     direction -0.34202 -0.939693 0   
     length 8.08317   
     axis 0 0 -20   XYZ
    dof rx
    limits (-10.0 170.0)
 end
 begin
     id 9 
     name rfoot
     direction -0.104954 -0.281256 0.953876   
     length 2.30343  
     axis -90 -7.62852e-016 -20   XYZ
    dof rx rz
    limits (-45.0 90.0)
           (-20.0 70.0)
  end
  begin
     id 10 
     name rtoes
     direction -1.53556e-011 -4.21922e-011 1   
     length 1.14803   
     axis -90 -7.62852e-016 -20   XYZ
    dof rx
    limits (-90.0 20.0)
  end
  begin
     id 11 
     name lowerback
     direction -0.0152855 0.99353 -0.11254   
     length 2.05311   
     axis 0 0 0   XYZ
    dof rx ry rz
    limits (-20.0 45.0)
           (-30.0 30.0)
           (-30.0 30.0)
  end
  begin
     id 12 
     name upperback
     direction -0.00157509 0.999443 -0.033332   
     length 2.06353   
     axis 0 0 0   XYZ
    dof rx ry rz
    limits (-20.0 45.0)
           (-30.0 30.0)
           (-30.0 30.0)
  end
  begin
     id 13 
     name thorax
     direction 0.00577788 0.999804 0.0189484   
     length 2.08472   
     axis 0 0 0   XYZ
    dof rx ry rz
    limits (-20.0 45.0)
           (-30.0 30.0)
           (-30.0 30.0)
  end
  begin
     id 14 
     name lowerneck
     direction -1.09301e-005 0.994719 0.10264   
     length 1.76249   
     axis 0 0 0   XYZ
    dof rx ry rz
    limits (-20.0 45.0)
           (-30.0 30.0)
           (-30.0 30.0)
  end
  begin
     id 15 
     name upperneck
     direction 0.0495018 0.988526 -0.142706   
     length 1.77897   
     axis 0 0 0   XYZ
    dof rx ry rz
    limits (-20.0 45.0)
           (-30.0 30.0)
           (-30.0 30.0)
  end
  begin
     id 16
     name head
     direction 0.0142736 0.998114 -0.0597101  
     length 1.78934  
     axis 0 0 0   XYZ
    dof rx ry rz
    limits (-20.0 45.0)
           (-30.0 30.0)
           (-30.0 30.0)
  end
  begin
     id 17 
     name lclavicle
     direction 0.918111 0.396107 -0.0130883  
     length 3.37276  
     axis 0 0 0   XYZ
    dof ry rz
    limits (-20.0 10.0)
           (0.0 20.0)
  end
  begin
     id 18 
     name lhumerus
     direction 1 -4.48975e-011 -3.26108e-027   
     length 5.34298   
     axis 180 -30 -90   XYZ
    dof rx ry rz
    limits (-60.0 90.0)
           (-90.0 90.0)
           (-90.0 90.0)
  end
  begin
     id 19
     name lradius
     direction 1 -4.48964e-011 -8.84413e-028   
     length 3.67262   
     axis 180 -30 -90   XYZ
    dof rx
    limits (-10.0 170.0)
  end
  begin
     id 20
     name lwrist
     direction 1 -4.48991e-011 -1.24264e-027   
     length 1.83631   
     axis -2.17013e-015 90 90   XYZ
    dof ry
    limits (-180.0 0.0)
 end
  begin
     id 21 
     name lhand
     direction 1 -4.48855e-011 -2.48528e-027   
     length 0.599298   
     axis 1.58582e-015 90 90   XYZ
    dof rx rz
    limits (-90.0 90.0)
           (-45.0 45.0)
  end
  begin
     id 22 
     name lfingers
     direction 1 -4.48811e-011 -4.97056e-027   
     length 0.48317   
     axis 3.17164e-015 90 90   XYZ
    dof rx
    limits (0.0 90.0)
  end
  begin
     id 23
     name lthumb
     direction 0.707107 -6.34882e-011 0.707107   
     length 0.693738   
     axis -90 45 2.85299e-015   XYZ
    dof rx rz
    limits (-45.0 45.0)
           (-45.0 45.0)
  end
  begin
     id 24 
     name rclavicle
     direction -0.920511 0.384752 -0.0680135   
     length 3.43787  
     axis 0 0 0   XYZ 
    dof ry rz
    limits (-10.0 20.0)
           (-20.0 0.0)
  end
  begin
     id 25 
     name rhumerus
     direction -0.999976 -0.00330524 0.00603274  
     length 5.5498   
     axis 180 30 90   XYZ
    dof rx ry rz
    limits (-90.0 60.0)
           (-90.0 90.0)
           (-90.0 90.0)
  end
  begin
     id 26 
     name rradius
     direction -1 -4.48967e-011 8.62438e-027   
     length 3.69401   
     axis 180 30 90   XYZ
    dof rx
    limits (-10.0 170.0)
  end
  begin
     id 27 
     name rwrist
     direction -1 -4.4897e-011 9.54866e-027   
     length 1.84701   
     axis -7.69462e-015 -90 -90   XYZ
    dof ry
    limits (-180.0 0.0)
  end
  begin
     id 28
     name rhand
     direction -1 -4.48982e-011 1.90973e-026   
     length 0.638113   
     axis -1.21857e-014 -90 -90   XYZ
    dof rx rz
    limits (-90.0 90.0)
           (-45.0 45.0)
  end
  begin
     id 29
     name rfingers
     direction -1 -4.48936e-011 3.81946e-026   
     length 0.514463   
     axis -2.43714e-014 -90 -90   XYZ
    dof rx
    limits (0.0 90.0)
  end
  begin
     id 30
     name rthumb
     direction -0.707107 -6.34942e-011 0.707107   
     length 0.738669   
     axis -90 -45 -2.85299e-015   XYZ
    dof rx rz
    limits (-45.0 45.0)
           (-45.0 45.0)
  end
:hierarchy
  begin
    root lhipjoint rhipjoint lowerback
    lhipjoint lfemur
    lfemur ltibia
    ltibia lfoot
    lfoot ltoes
    rhipjoint rfemur
    rfemur rtibia
    rtibia rfoot
    rfoot rtoes
    lowerback upperback
    upperback thorax
    thorax lowerneck lclavicle rclavicle
    lowerneck upperneck
    upperneck head
    lclavicle lhumerus
    lhumerus lradius
    lradius lwrist
    lwrist lhand lthumb
    lhand lfingers
    rclavicle rhumerus
    rhumerus rradius
    rradius rwrist
    rwrist rhand rthumb
    rhand rfingers
  end

#!OML:ASF F:\twosubjects\two\Thursday\Session 1\Rory.ASF
:FULLY-SPECIFIED
:DEGREES
95
root -0.76756 18.5731 11.4925 -178.02 43.1429 -182.966
lowerback 5.82269 -0.964767 -0.60009
upperback 3.26861 -1.18116 0.757155
thorax 0.126916 -0.5499 1.17943
lowerneck -8.29168 -10.2427 -7.94738
upperneck 32.8213 -14.0727 8.88253
head 13.7727 -5.40114 2.97459
rclavicle 2.98177e-016 -3.97569e-015
rhumerus -12.9626 -4.22563 -81.6663
rradius 60.7553
rwrist -29.3189
rhand -3.89642 14.8984
rfingers 7.12502
rthumb 21.8534 -13.8876
lclavicle 2.98177e-016 -3.97569e-015
lhumerus -29.7309 0.0531692 81.4607
lradius 55.2244
lwrist 2.59895
lhand -10.9532 34.3022
lfingers 7.12502
lthumb 15.0656 63.734
rfemur -21.3469 3.55417 19.6878
rtibia 33.4059
rfoot -11.4908 -5.00716
rtoes 5.20127
lfemur -21.7011 10.5174 -18.9077
ltibia 56.2282
lfoot -7.92694 7.26039
ltoes -9.24595
96
root -0.747267 18.5747 11.3908 -178.056 44.303 -182.896
lowerback 5.73868 -0.892514 -0.510485
upperback 3.31166 -1.08097 0.749393
thorax 0.213348 -0.499239 1.11396
lowerneck -8.3377 -10.0585 -7.83936
upperneck 32.8362 -13.7897 8.72067
head 13.7294 -5.28962 2.93659
rclavicle 2.74323e-014 -4.37326e-014
rhumerus -13.3215 -3.44557 -81.8022
rradius 61.3918
rwrist -29.6167
rhand -4.53009 14.9151
rfingers 7.12502
rthumb 21.2449 -13.9406
lclavicle 2.74323e-014 -4.37326e-014
lhumerus -29.7235 -0.255959 81.882
lradius 55.1352
lwrist 2.71286
lhand -11.3652 33.8896
lfingers 7.12502
lthumb 14.6686 63.3507
rfemur -21.0568 3.70736 19.6231
rtibia 33.3604
rfoot -11.6415 -4.16407
rtoes 5.01229
lfemur -21.8759 10.1893 -18.8751
ltibia 55.2523
lfoot -8.96202 6.97451
ltoes -6.53843
97
root -0.73253 18.5693 11.303 -178.264 45.3792 -183.015
lowerback 5.92384 -0.834622 -0.539848
upperback 3.26626 -1.0089 0.613874
thorax 0.0601737 -0.462733 0.990594
lowerneck -8.36163 -9.96348 -7.7053
upperneck 32.932 -13.6694 8.64625
head 13.7435 -5.22859 2.90582
rclavicle 1.40143e-014 -2.78299e-015
rhumerus -13.7537 -2.89053 -82.22
rradius 61.8845
rwrist -28.7756
rhand -5.89113 15.057
rfingers 7.12502
rthumb 19.937 -13.9403
lclavicle 1.40143e-014 -2.78299e-015
lhumerus -29.6682 -0.47644 82.1155
lradius 55.0407
lwrist 2.75855
lhand -11.101 34.0091
lfingers 7.12502
lthumb 14.9232 63.4515
rfemur -20.769 3.8699 19.4292
rtibia 33.3023
rfoot -11.8811 -3.44452
rtoes 5.82628
lfemur -22.0213 9.82769 -18.9549
ltibia 54.2134
lfoot -8.87814 7.12578
ltoes -8.66339
98
root -0.71938 18.5625 11.2244 -178.174 46.463 -182.909
lowerback 6.01422 -0.830651 -0.466683
upperback 3.20073 -1.00462 0.539317
thorax -0.060265 -0.460194 0.874668
lowerneck -8.62946 -9.8291 -7.47494
upperneck 33.2047 -13.4246 8.2732
head 13.8392 -5.12689 2.75262
rclavicle -3.33958e-014 -2.50469e-014
rhumerus -14.0713 -2.1941 -82.7168
rradius 62.321
rwrist -27.6985
rhand -5.1656 14.7713
rfingers 7.12502
rthumb 20.6343 -14.1519
lclavicle -3.33958e-014 -2.50469e-014
lhumerus -29.5432 -0.605167 82.3192
lradius 54.8125
lwrist 2.6278
lhand -10.9261 33.3769
lfingers 7.12502
lthumb 15.0917 62.8068
rfemur -20.631 4.48655 19.3827
rtibia 33.2779
rfoot -12.2086 -3.13674
rtoes 6.05282
lfemur -22.3721 9.50401 -18.806
ltibia 53.0666
lfoot -8.92224 7.67075
ltoes -11.379
99
root -0.701191 18.5635 11.1409 -178.085 47.6861 -182.832
lowerback 5.9696 -0.766686 -0.535912
upperback 3.14798 -0.927573 0.561804
thorax -0.089625 -0.424421 0.931836
lowerneck -8.64827 -9.67817 -7.45447
upperneck 33.295 -13.1304 7.97023
head 13.8206 -5.03807 2.67604
rclavicle -3.99557e-014 3.97569e-015
rhumerus -14.4553 -1.0893 -82.9015
rradius 62.865
rwrist -27.2602
rhand -3.8955 14.1654
rfingers 7.12502
rthumb 21.8543 -14.6205
lclavicle -3.99557e-014 3.97569e-015
lhumerus -29.5724 -0.927875 82.6806
lradius 54.8511
lwrist 2.64231
lhand -10.9535 32.64
lfingers 7.12502
lthumb 15.0653 62.0718
rfemur -20.5354 5.09935 19.2975
rtibia 33.292
rfoot -12.4387 -2.66204
rtoes 6.65406
lfemur -22.6586 9.14343 -18.6255
ltibia 51.7891
lfoot -9.22659 8.18337
ltoes -12.3948
